Coordinates
version=1
nRows=15
nColumns=34
inDegrees=yes

Units are S.I. units (second, meters, Newtons, ...)
If the header above contains a line with 'inDegrees', this indicates whether rotational values are in degrees (yes) or radians (no).

endheader
time	pelvis_tilt	pelvis_list	pelvis_rotation	pelvis_tx	pelvis_ty	pelvis_tz	hip_flexion_r	hip_adduction_r	hip_rotation_r	knee_angle_r	ankle_angle_r	subtalar_angle_r	mtp_angle_r	hip_flexion_l	hip_adduction_l	hip_rotation_l	knee_angle_l	ankle_angle_l	subtalar_angle_l	mtp_angle_l	lumbar_extension	lumbar_bending	lumbar_rotation	arm_flex_r	arm_add_r	arm_rot_r	elbow_flex_r	pro_sup_r	arm_flex_l	arm_add_l	arm_rot_l	elbow_flex_l	pro_sup_l
      5.41666670	     -4.42524142	      0.63997320	     -0.12218391	     -0.62083924	      0.74195929	     -0.16458868	     51.20301423	    -10.02865366	     -7.01939345	     84.77480902	     39.12666909	     -2.21058164	      0.00000000	     51.01603200	    -11.13410668	     -7.90695591	     84.74809604	     37.50664688	      3.82678239	      0.00000000	    -52.51822954	     -0.08938973	      4.05339237	     22.73830545	    -12.08650952	    -13.61518430	     33.43325194	     96.03296010	     21.97184251	    -13.39260314	      5.75526914	     36.02945692	     99.00519736
      5.43333330	     -4.47128972	      0.61050567	     -0.15103645	     -0.62265373	      0.74809375	     -0.16548491	     50.54963161	     -9.85736136	     -7.16623708	     83.41467801	     38.44742118	     -2.30817391	      0.00000000	     50.62183446	    -11.03268451	     -8.01952735	     83.65662483	     36.75939566	      3.68307949	      0.00000000	    -51.82584795	     -0.07077135	      4.06356480	     22.28839418	    -11.93752669	    -13.59266483	     33.74632451	     96.09606759	     21.64380292	    -13.29203010	      5.62419994	     36.22555105	     98.99622621
      5.45000000	     -4.40813723	      0.55206600	     -0.19729872	     -0.62192804	      0.75653886	     -0.16531019	     49.44130388	     -9.51537481	     -7.30545855	     81.42694060	     37.96036609	     -2.34309955	      0.00000000	     49.58102874	    -10.94267507	     -8.20180366	     81.91310295	     36.05347482	      3.37075085	      0.00000000	    -51.22295511	     -0.08361656	      4.07952054	     21.67579352	    -11.74641530	    -13.54119246	     34.21639695	     96.22665897	     21.30757865	    -13.16657782	      5.41820201	     36.52435329	     99.01338856
      5.46666670	     -4.59271113	      0.52823763	     -0.26374353	     -0.62116534	      0.76588448	     -0.16526611	     48.66620729	     -9.30735579	     -7.50122210	     79.41308614	     37.16491512	     -2.01168390	      0.00000000	     48.81215023	    -10.75689537	     -8.38867673	     80.03144317	     35.58482254	      3.74548483	      0.00000000	    -50.30138900	     -0.09176028	      4.00345633	     21.11920744	    -11.52908714	    -13.48725818	     34.30939540	     96.29290071	     20.92858965	    -13.09824789	      5.39031537	     36.61533956	     99.04103988
      5.48333330	     -4.45076255	      0.48461869	     -0.38417279	     -0.61833354	      0.77457776	     -0.16478954	     47.19252868	     -8.96010126	     -7.61898661	     77.23633487	     36.19144233	     -2.31832068	      0.00000000	     47.28775344	    -10.75009405	     -8.77889301	     77.95985066	     34.69892877	      3.58019079	      0.00000000	    -49.62468076	     -0.13310693	      3.94062107	     20.48967129	    -11.27565776	    -13.37943498	     34.49202537	     96.44663087	     20.40075079	    -13.03627788	      5.32140476	     36.69283092	     99.11324268
      5.50000000	     -4.65619750	      0.54105662	     -0.52936567	     -0.61666606	      0.78044913	     -0.16495404	     46.12646588	     -8.80369987	     -7.73285369	     75.14024947	     35.23934531	     -2.32149158	      0.00000000	     46.10519379	    -10.67549195	     -9.30294463	     75.86328442	     33.78770186	      3.59083398	      0.00000000	    -48.34529528	     -0.22217697	      3.79555045	     19.83422008	    -11.03778294	    -13.29189700	     34.49115316	     96.54274823	     19.79376542	    -13.06074795	      5.33349487	     36.59243223	     99.16820749
      5.51666670	     -4.60003859	      0.56845692	     -0.72712350	     -0.61335663	      0.79292999	     -0.16373234	     44.41721926	     -8.41184470	     -7.76876324	     72.33998507	     34.37634811	     -2.13188585	      0.00000000	     44.37468720	    -10.53805487	     -9.73591066	     73.29518897	     32.90274098	      3.28113129	      0.00000000	    -47.27657397	     -0.37518959	      3.65023872	     19.14527665	    -10.68737592	    -13.11262227	     34.40479332	     96.70611932	     19.12039470	    -13.08408691	      5.33497015	     36.40923708	     99.25548361
      5.53333330	     -4.56116836	      0.52954862	     -0.89471418	     -0.61088785	      0.80294248	     -0.16356308	     42.71709847	     -8.03796742	     -7.95048008	     69.64696690	     33.56404967	     -1.73354819	      0.00000000	     42.48627344	    -10.39444899	    -10.04641621	     70.58171490	     32.09086827	      3.27405901	      0.00000000	    -46.03705588	     -0.47151448	      3.58659923	     18.43419737	    -10.41674746	    -12.85170200	     34.16736469	     96.88289995	     18.32541024	    -13.05457204	      5.34265133	     36.09384197	     99.33696229
      5.55000000	     -4.69411072	      0.64494137	     -0.89765490	     -0.60995838	      0.81117514	     -0.16484139	     41.36174553	     -7.91935377	     -8.05222748	     67.26369851	     32.53575448	     -1.92217784	      0.00000000	     41.01520606	    -10.04171443	    -10.56331445	     67.93222615	     31.03711220	      3.09832005	      0.00000000	    -44.52241598	     -0.57288108	      3.36451584	     17.70164976	    -10.20198824	    -12.50904407	     33.85420495	     97.06358415	     17.62744807	    -13.05757191	      5.40143565	     35.79319175	     99.42181944
      5.56666670	     -4.94919357	      0.61630254	     -0.91874897	     -0.60044071	      0.81479960	     -0.16528345	     39.85272028	     -7.83644795	     -8.34622237	     64.89209494	     31.72284121	     -1.80834476	      0.00000000	     39.87660829	     -9.92450551	    -10.90087084	     66.04004027	     30.20317972	      3.16058634	      0.00000000	    -42.40289055	     -0.48391925	      3.21012861	     16.60467804	    -10.00274293	    -12.31848451	     33.45181805	     97.15526270	     16.36782050	    -12.95816199	      5.48221666	     35.33637309	     99.46100620
      5.58333330	     -5.43525415	      0.70209093	     -0.94629812	     -0.59910733	      0.81903183	     -0.16417099	     39.06315138	     -7.69571363	     -8.36860031	     62.95251968	     30.99485488	     -2.39955895	      0.00000000	     39.06108545	     -9.68408230	    -11.32094621	     63.96739280	     29.96595675	      3.55637549	      0.00000000	    -39.91129413	     -0.57068811	      2.84248288	     15.66410707	     -9.66860121	    -11.73109001	     32.70077284	     97.37610947	     15.18572235	    -12.94314364	      5.46135197	     34.49301857	     99.49688344
      5.60000000	     -6.37000859	      0.76327780	     -1.07326141	     -0.59426328	      0.82156545	     -0.16552372	     38.96044560	     -7.67655091	     -8.53487470	     61.26383744	     30.20295883	     -2.19509985	      0.00000000	     38.61277603	     -9.47017111	    -11.76553179	     61.85890354	     30.04924838	      4.42774211	      0.00000000	    -36.65609658	     -0.57982219	      2.66583214	     14.41821318	     -9.50040555	    -11.19182777	     31.92812406	     97.53801011	     13.70482564	    -12.85383149	      5.48767079	     33.98753414	     99.50295565
      5.61666670	     -7.19419241	      0.75683233	     -1.12764487	     -0.59046340	      0.82882378	     -0.16678224	     38.34734961	     -7.57422636	     -8.88055118	     58.89580084	     29.09139317	     -2.02807084	      0.00000000	     37.87717357	     -9.13545776	    -12.05301278	     59.28161398	     29.87595801	      4.90440549	      0.00000000	    -33.59308111	     -0.48084241	      2.48161722	     13.18973650	     -9.35158428	    -10.93919482	     31.51118048	     97.59709142	     12.19239325	    -12.73312161	      5.58124440	     33.48952402	     99.50421657
      5.63333330	     -8.31024993	      0.57245713	     -1.21872446	     -0.58836250	      0.83916813	     -0.16817844	     37.82542125	     -7.04106461	     -9.05032990	     55.83692411	     27.90072683	     -2.33239938	      0.00000000	     37.35804462	     -8.84059466	    -11.97108269	     56.54839670	     28.93220355	      4.83855911	      0.00000000	    -29.87258392	     -0.18915106	      2.27675414	     11.98954780	     -9.10124929	    -10.19018520	     30.38591730	     97.72877560	     10.53825215	    -12.47455064	      5.65309072	     32.44477317	     99.44490913
      5.65000000	     -8.90595015	      0.49821721	     -1.26666949	     -0.58177303	      0.84662053	     -0.16952072	     36.44389066	     -6.81338395	     -9.52007310	     52.49064571	     26.55778234	     -1.82441099	      0.00000000	     36.02647400	     -8.48237761	    -12.24047051	     53.29885427	     27.78170514	      5.25999185	      0.00000000	    -26.76871801	     -0.03634303	      2.19255542	     10.57090903	     -8.95390002	     -9.92812431	     29.86542363	     97.76088162	      8.93826040	    -12.22806763	      5.78803369	     32.02125923	     99.42974226
